{
  "accessors": [
    {
      "bufferView": 0,
      "componentType": 5126,
      "count": 24,
      "max": [
        0.6923274397850037,
        0.025149963796138763,
        0.5
      ],
      "min": [
        -0.6923274397850037,
        -0.025149963796138763,
        -0.5
      ],
      "type": "VEC3"
    },
    {
      "bufferView": 1,
      "componentType": 5126,
      "count": 24,
      "type": "VEC3"
    },
    {
      "bufferView": 2,
      "componentType": 5126,
      "count": 24,
      "type": "VEC2"
    },
    {
      "bufferView": 3,
      "componentType": 5125,
      "count": 36,
      "type": "SCALAR"
    },
    {
      "bufferView": 4,
      "componentType": 5126,
      "count": 24,
      "max": [
        0.5661301612854004,
        0.02692972868680954,
        0.39181727170944214
      ],
      "min": [
        -0.5661301612854004,
        -0.02692972868680954,
        -0.39181727170944214
      ],
      "type": "VEC3"
    },
    {
      "bufferView": 5,
      "componentType": 5126,
      "count": 24,
      "type": "VEC3"
    },
    {
      "bufferView": 6,
      "componentType": 5126,
      "count": 24,
      "type": "VEC2"
    },
    {
      "bufferView": 7,
      "componentType": 5125,
      "count": 36,
      "type": "SCALAR"
    },
    {
      "bufferView": 8,
      "componentType": 5126,
      "count": 3684,
      "max": [
        0.432593435049057,
        0.11463604122400284,
        0.006399406120181084
      ],
      "min": [
        -0.432593435049057,
        0.023934997618198395,
        -0.006399406120181084
      ],
      "type": "VEC3"
    },
    {
      "bufferView": 9,
      "componentType": 5126,
      "count": 3684,
      "type": "VEC3"
    },
    {
      "bufferView": 10,
      "componentType": 5126,
      "count": 3684,
      "type": "VEC2"
    },
    {
      "bufferView": 11,
      "componentType": 5125,
      "count": 3684,
      "type": "SCALAR"
    },
    {
      "bufferView": 12,
      "componentType": 5126,
      "count": 108,
      "max": [
        0.13349591195583344,
        0.32277753949165344,
        0.012775654904544353
      ],
      "min": [
        -0.13349591195583344,
        0.049381837248802185,
        -0.012775654904544353
      ],
      "type": "VEC3"
    },
    {
      "bufferView": 13,
      "componentType": 5126,
      "count": 108,
      "type": "VEC3"
    },
    {
      "bufferView": 14,
      "componentType": 5126,
      "count": 108,
      "type": "VEC2"
    },
    {
      "bufferView": 15,
      "componentType": 5125,
      "count": 108,
      "type": "SCALAR"
    },
    {
      "bufferView": 16,
      "componentType": 5126,
      "count": 440,
      "max": [
        0.024761348962783813,
        0.0055908202193677425,
        0.044632840901613235
      ],
      "min": [
        -0.024761348962783813,
        -0.0055908202193677425,
        -0.044632840901613235
      ],
      "type": "VEC3"
    },
    {
      "bufferView": 17,
      "componentType": 5126,
      "count": 440,
      "type": "VEC3"
    },
    {
      "bufferView": 18,
      "componentType": 5126,
      "count": 440,
      "type": "VEC2"
    },
    {
      "bufferView": 19,
      "componentType": 5125,
      "count": 600,
      "type": "SCALAR"
    },
    {
      "bufferView": 20,
      "componentType": 5126,
      "count": 440,
      "max": [
        0.019436486065387726,
        0.00559092964977026,
        0.031077606603503227
      ],
      "min": [
        -0.019436486065387726,
        -0.00559092964977026,
        -0.031077606603503227
      ],
      "type": "VEC3"
    },
    {
      "bufferView": 21,
      "componentType": 5126,
      "count": 440,
      "type": "VEC3"
    },
    {
      "bufferView": 22,
      "componentType": 5126,
      "count": 440,
      "type": "VEC2"
    },
    {
      "bufferView": 23,
      "componentType": 5125,
      "count": 600,
      "type": "SCALAR"
    }
  ],
  "asset": {
    "generator": "Prisma3D Pro",
    "version": "2.0"
  },
  "bufferViews": [
    {
      "buffer": 0,
      "byteLength": 288,
      "target": 34962
    },
    {
      "buffer": 1,
      "byteLength": 288,
      "target": 34962
    },
    {
      "buffer": 2,
      "byteLength": 192,
      "target": 34962
    },
    {
      "buffer": 3,
      "byteLength": 144,
      "target": 34963
    },
    {
      "buffer": 4,
      "byteLength": 288,
      "target": 34962
    },
    {
      "buffer": 5,
      "byteLength": 288,
      "target": 34962
    },
    {
      "buffer": 6,
      "byteLength": 192,
      "target": 34962
    },
    {
      "buffer": 7,
      "byteLength": 144,
      "target": 34963
    },
    {
      "buffer": 8,
      "byteLength": 44208,
      "target": 34962
    },
    {
      "buffer": 9,
      "byteLength": 44208,
      "target": 34962
    },
    {
      "buffer": 10,
      "byteLength": 29472,
      "target": 34962
    },
    {
      "buffer": 11,
      "byteLength": 14736,
      "target": 34963
    },
    {
      "buffer": 12,
      "byteLength": 1296,
      "target": 34962
    },
    {
      "buffer": 13,
      "byteLength": 1296,
      "target": 34962
    },
    {
      "buffer": 14,
      "byteLength": 864,
      "target": 34962
    },
    {
      "buffer": 15,
      "byteLength": 432,
      "target": 34963
    },
    {
      "buffer": 16,
      "byteLength": 5280,
      "target": 34962
    },
    {
      "buffer": 17,
      "byteLength": 5280,
      "target": 34962
    },
    {
      "buffer": 18,
      "byteLength": 3520,
      "target": 34962
    },
    {
      "buffer": 19,
      "byteLength": 2400,
      "target": 34963
    },
    {
      "buffer": 20,
      "byteLength": 5280,
      "target": 34962
    },
    {
      "buffer": 21,
      "byteLength": 5280,
      "target": 34962
    },
    {
      "buffer": 22,
      "byteLength": 3520,
      "target": 34962
    },
    {
      "buffer": 23,
      "byteLength": 2400,
      "target": 34963
    }
  ],
  "buffers": [
    {
      "byteLength": 288,
      "uri": "data:application/octet-stream;base64,"
    },
    {
      "byteLength": 288,
      "uri": "data:application/octet-stream;base64,"
    },
    {
      "byteLength": 192,
      "uri": "data:application/octet-stream;base64,"
    },
    {
      "byteLength": 144,
      "uri": "data:application/octet-stream;base64,"
    },
    {
      "byteLength": 288,
      "uri": "data:application/octet-stream;base64,"
    },
    {
      "byteLength": 288,
      "uri": "data:application/octet-stream;base64,"
    },
    {
      "byteLength": 192,
      "uri": "data:application/octet-stream;base64,"
    },
    {
      "byteLength": 144,
      "uri": "data:application/octet-stream;base64,"
    },
    {
      "byteLength": 44208,
      "uri": "data:application/octet-stream;base64,"
    },
    {
      "byteLength": 44208,
      "uri": "data:application/octet-stream;base64,"
    },
    {
      "byteLength": 29472,
      "uri": "data:application/octet-stream;base64,"
    },
    {
      "byteLength": 14736,
      "uri": "data:application/octet-stream;base64,"
    },
    {
      "byteLength": 1296,
      "uri": "data:application/octet-stream;base64,"
    },
    {
      "byteLength": 1296,
      "uri": "data:application/octet-stream;base64,"
    },
    {
      "byteLength": 864,
      "uri": "data:application/octet-stream;base64,"
    },
    {
      "byteLength": 432,
      "uri": "data:application/octet-stream;base64,"
    },
    {
      "byteLength": 5280,
      "uri": "data:application/octet-stream;base64,"
    },
    {
      "byteLength": 5280,
      "uri": "data:application/octet-stream;base64,"
    },
    {
      "byteLength": 3520,
      "uri": "data:application/octet-stream;base64,"
    },
    {
      "byteLength": 2400,
      "uri": "data:application/octet-stream;base64,"
    },
    {
      "byteLength": 5280,
      "uri": "data:application/octet-stream;base64,"
    },
    {
      "byteLength": 5280,
      "uri": "data:application/octet-stream;base64,"
    },
    {
      "byteLength": 3520,
      "uri": "data:application/octet-stream;base64,"
    },
    {
      "byteLength": 2400,
      "uri": "data:application/octet-stream;base64,"
    }
  ],
  "materials": [
    {
      "doubleSided": true,
      "pbrMetallicRoughness": {
        "metallicFactor": 0.0,
        "roughnessFactor": 0.0
      }
    },
    {
      "doubleSided": true,
      "pbrMetallicRoughness": {
        "baseColorFactor": [
          0.2078431397676468,
          0.2078431397676468,
          0.2078431397676468,
          1.0
        ],
        "metallicFactor": 0.0,
        "roughnessFactor": 0.0
      }
    },
    {
      "doubleSided": true,
      "pbrMetallicRoughness": {
        "baseColorFactor": [
          0.2078431397676468,
          0.2078431397676468,
          0.2078431397676468,
          1.0
        ],
        "metallicFactor": 0.0,
        "roughnessFactor": 0.0
      }
    },
    {
      "doubleSided": true,
      "pbrMetallicRoughness": {
        "baseColorFactor": [
          0.18039216101169586,
          0.800000011920929,
          0.4431372582912445,
          1.0
        ],
        "metallicFactor": 0.0,
        "roughnessFactor": 0.0
      }
    },
    {
      "doubleSided": true,
      "pbrMetallicRoughness": {
        "baseColorFactor": [
          0.49803921580314636,
          0.5490196347236633,
          0.5529412031173706,
          1.0
        ],
        "metallicFactor": 0.75,
        "roughnessFactor": 0.0
      }
    },
    {
      "doubleSided": true,
      "pbrMetallicRoughness": {
        "baseColorFactor": [
          0.2078431397676468,
          0.2078431397676468,
          0.2078431397676468,
          1.0
        ],
        "metallicFactor": 0.75,
        "roughnessFactor": 0.0
      }
    }
  ],
  "meshes": [
    {
      "primitives": [
        {
          "attributes": {
            "NORMAL": 1,
            "POSITION": 0,
            "TEXCOORD_0": 2
          },
          "indices": 3,
          "material": 0,
          "mode": 4
        }
      ]
    },
    {
      "primitives": [
        {
          "attributes": {
            "NORMAL": 5,
            "POSITION": 4,
            "TEXCOORD_0": 6
          },
          "indices": 7,
          "material": 1,
          "mode": 4
        }
      ]
    },
    {
      "primitives": [
        {
          "attributes": {
            "NORMAL": 9,
            "POSITION": 8,
            "TEXCOORD_0": 10
          },
          "indices": 11,
          "material": 2,
          "mode": 4
        }
      ]
    },
    {
      "primitives": [
        {
          "attributes": {
            "NORMAL": 13,
            "POSITION": 12,
            "TEXCOORD_0": 14
          },
          "indices": 15,
          "material": 3,
          "mode": 4
        }
      ]
    },
    {
      "primitives": [
        {
          "attributes": {
            "NORMAL": 17,
            "POSITION": 16,
            "TEXCOORD_0": 18
          },
          "indices": 19,
          "material": 4,
          "mode": 4
        }
      ]
    },
    {
      "primitives": [
        {
          "attributes": {
            "NORMAL": 21,
            "POSITION": 20,
            "TEXCOORD_0": 22
          },
          "indices": 23,
          "material": 5,
          "mode": 4
        }
      ]
    }
  ],
  "nodes": [
    {
      "mesh": 0,
      "name": "立方体",
      "rotation": [
        0.0,
        -0.0,
        -0.0,
        1.0
      ],
      "scale": [
        1.0,
        1.0,
        1.0
      ],
      "translation": [
        -0.0,
        -0.001240566372871399,
        0.0
      ]
    },
    {
      "mesh": 1,
      "name": "立方体",
      "rotation": [
        0.0,
        -0.0,
        -0.0,
        1.0
      ],
      "scale": [
        1.0,
        1.0,
        1.0
      ],
      "translation": [
        -7.450580596923828e-09,
        -0.0013623535633087158,
        -0.0068912506103515625
      ]
    },
    {
      "mesh": 2,
      "name": "你的文字",
      "rotation": [
        -3.090862321641907e-08,
        0.7071068286895752,
        -0.7071068286895752,
        -3.090862321641907e-08
      ],
      "scale": [
        1.0,
        1.0,
        1.0
      ],
      "translation": [
        -0.009301007725298405,
        0.01922476291656494,
        0.5019693374633789
      ]
    },
    {
      "mesh": 3,
      "name": "你的文字",
      "rotation": [
        -3.090862321641907e-08,
        0.7071068286895752,
        -0.7071068286895752,
        -3.090862321641907e-08
      ],
      "scale": [
        1.0,
        1.0,
        1.0
      ],
      "translation": [
        -0.38116100430488586,
        0.013917284086346626,
        -0.031207039952278137
      ]
    },
    {
      "mesh": 4,
      "name": "圆柱体",
      "rotation": [
        -3.161014205943502e-08,
        3.161014916486238e-08,
        -0.7071068286895752,
        0.7071068286895752
      ],
      "scale": [
        1.0,
        1.0,
        1.0
      ],
      "translation": [
        0.691933810710907,
        -0.00043760985136032104,
        -6.186369461147478e-08
      ]
    },
    {
      "mesh": 5,
      "name": "圆柱体",
      "rotation": [
        -3.161014205943502e-08,
        3.161014916486238e-08,
        -0.7071068286895752,
        0.7071068286895752
      ],
      "scale": [
        1.0,
        1.0,
        1.0
      ],
      "translation": [
        0.6935299634933472,
        0.0006030993536114693,
        -0.0027978462167084217
      ]
    }
  ],
  "scenes": [
    {
      "nodes": [
        0,
        1,
        2,
        3,
        4,
        5
      ]
    }
  ]
}
